<svg class="rich-terminal" viewBox="0 0 1360 489.2" xmlns="http://www.w3.org/2000/svg">
    <!-- Generated with Rich https://www.textualize.io -->
    <style>

    @font-face {
        font-family: "Fira Code";
        src: local("FiraCode-Regular"),
                url("https://cdnjs.cloudflare.com/ajax/libs/firacode/6.2.0/woff2/FiraCode-Regular.woff2") format("woff2"),
                url("https://cdnjs.cloudflare.com/ajax/libs/firacode/6.2.0/woff/FiraCode-Regular.woff") format("woff");
        font-style: normal;
        font-weight: 400;
    }
    @font-face {
        font-family: "Fira Code";
        src: local("FiraCode-Bold"),
                url("https://cdnjs.cloudflare.com/ajax/libs/firacode/6.2.0/woff2/FiraCode-Bold.woff2") format("woff2"),
                url("https://cdnjs.cloudflare.com/ajax/libs/firacode/6.2.0/woff/FiraCode-Bold.woff") format("woff");
        font-style: bold;
        font-weight: 700;
    }

    .terminal-292415677-matrix {
        font-family: Fira Code, monospace;
        font-size: 20px;
        line-height: 24.4px;
        font-variant-east-asian: full-width;
    }

    .terminal-292415677-title {
        font-size: 18px;
        font-weight: bold;
        font-family: arial;
    }

    .terminal-292415677-r1 { fill: #c5c8c6 }
.terminal-292415677-r2 { fill: #e0e0e0 }
.terminal-292415677-r3 { fill: #121212 }
.terminal-292415677-r4 { fill: #191919 }
.terminal-292415677-r5 { fill: #737373 }
.terminal-292415677-r6 { fill: #000000;font-weight: bold }
.terminal-292415677-r7 { fill: #9aa4b2 }
.terminal-292415677-r8 { fill: #a0a0a0 }
.terminal-292415677-r9 { fill: #d435ac;font-weight: bold }
.terminal-292415677-r10 { fill: #ffffff;font-weight: bold }
.terminal-292415677-r11 { fill: #ddedf9;font-weight: bold }
.terminal-292415677-r12 { fill: #663399 }
.terminal-292415677-r13 { fill: #35d4d4 }
.terminal-292415677-r14 { fill: #c0d435 }
.terminal-292415677-r15 { fill: #669933 }
.terminal-292415677-r16 { fill: #995933 }
.terminal-292415677-r17 { fill: #ffa62b;font-weight: bold }
.terminal-292415677-r18 { fill: #495259 }
    </style>

    <defs>
    <clipPath id="terminal-292415677-clip-terminal">
      <rect x="0" y="0" width="1341.0" height="438.2" />
    </clipPath>
    <clipPath id="terminal-292415677-line-0">
    <rect x="0" y="1.5" width="1342" height="24.65"/>
            </clipPath>
<clipPath id="terminal-292415677-line-1">
    <rect x="0" y="25.9" width="1342" height="24.65"/>
            </clipPath>
<clipPath id="terminal-292415677-line-2">
    <rect x="0" y="50.3" width="1342" height="24.65"/>
            </clipPath>
<clipPath id="terminal-292415677-line-3">
    <rect x="0" y="74.7" width="1342" height="24.65"/>
            </clipPath>
<clipPath id="terminal-292415677-line-4">
    <rect x="0" y="99.1" width="1342" height="24.65"/>
            </clipPath>
<clipPath id="terminal-292415677-line-5">
    <rect x="0" y="123.5" width="1342" height="24.65"/>
            </clipPath>
<clipPath id="terminal-292415677-line-6">
    <rect x="0" y="147.9" width="1342" height="24.65"/>
            </clipPath>
<clipPath id="terminal-292415677-line-7">
    <rect x="0" y="172.3" width="1342" height="24.65"/>
            </clipPath>
<clipPath id="terminal-292415677-line-8">
    <rect x="0" y="196.7" width="1342" height="24.65"/>
            </clipPath>
<clipPath id="terminal-292415677-line-9">
    <rect x="0" y="221.1" width="1342" height="24.65"/>
            </clipPath>
<clipPath id="terminal-292415677-line-10">
    <rect x="0" y="245.5" width="1342" height="24.65"/>
            </clipPath>
<clipPath id="terminal-292415677-line-11">
    <rect x="0" y="269.9" width="1342" height="24.65"/>
            </clipPath>
<clipPath id="terminal-292415677-line-12">
    <rect x="0" y="294.3" width="1342" height="24.65"/>
            </clipPath>
<clipPath id="terminal-292415677-line-13">
    <rect x="0" y="318.7" width="1342" height="24.65"/>
            </clipPath>
<clipPath id="terminal-292415677-line-14">
    <rect x="0" y="343.1" width="1342" height="24.65"/>
            </clipPath>
<clipPath id="terminal-292415677-line-15">
    <rect x="0" y="367.5" width="1342" height="24.65"/>
            </clipPath>
<clipPath id="terminal-292415677-line-16">
    <rect x="0" y="391.9" width="1342" height="24.65"/>
            </clipPath>
    </defs>

    <rect fill="#292929" stroke="rgba(255,255,255,0.35)" stroke-width="1" x="1" y="1" width="1358" height="487.2" rx="8"/><text class="terminal-292415677-title" fill="#c5c8c6" text-anchor="middle" x="679" y="27">Band</text>
            <g transform="translate(26,22)">
            <circle cx="0" cy="0" r="7" fill="#ff5f57"/>
            <circle cx="22" cy="0" r="7" fill="#febc2e"/>
            <circle cx="44" cy="0" r="7" fill="#28c840"/>
            </g>
        
    <g transform="translate(9, 41)" clip-path="url(#terminal-292415677-clip-terminal)">
    <rect fill="#242f38" x="0" y="1.5" width="12.2" height="24.65" shape-rendering="crispEdges"/><rect fill="#242f38" x="12.2" y="1.5" width="12.2" height="24.65" shape-rendering="crispEdges"/><rect fill="#242f38" x="24.4" y="1.5" width="61" height="24.65" shape-rendering="crispEdges"/><rect fill="#242f38" x="85.4" y="1.5" width="12.2" height="24.65" shape-rendering="crispEdges"/><rect fill="#242f38" x="97.6" y="1.5" width="536.8" height="24.65" shape-rendering="crispEdges"/><rect fill="#242f38" x="634.4" y="1.5" width="48.8" height="24.65" shape-rendering="crispEdges"/><rect fill="#242f38" x="683.2" y="1.5" width="536.8" height="24.65" shape-rendering="crispEdges"/><rect fill="#242f38" x="1220" y="1.5" width="12.2" height="24.65" shape-rendering="crispEdges"/><rect fill="#242f38" x="1232.2" y="1.5" width="0" height="24.65" shape-rendering="crispEdges"/><rect fill="#242f38" x="1232.2" y="1.5" width="97.6" height="24.65" shape-rendering="crispEdges"/><rect fill="#242f38" x="1329.8" y="1.5" width="12.2" height="24.65" shape-rendering="crispEdges"/><rect fill="#191919" x="0" y="25.9" width="12.2" height="24.65" shape-rendering="crispEdges"/><rect fill="#1e1e1e" x="12.2" y="25.9" width="1317.6" height="24.65" shape-rendering="crispEdges"/><rect fill="#121212" x="1329.8" y="25.9" width="12.2" height="24.65" shape-rendering="crispEdges"/><rect fill="#191919" x="0" y="50.3" width="12.2" height="24.65" shape-rendering="crispEdges"/><rect fill="#1e1e1e" x="12.2" y="50.3" width="24.4" height="24.65" shape-rendering="crispEdges"/><rect fill="#1e1e1e" x="36.6" y="50.3" width="256.2" height="24.65" shape-rendering="crispEdges"/><rect fill="#1e1e1e" x="292.8" y="50.3" width="1012.6" height="24.65" shape-rendering="crispEdges"/><rect fill="#1e1e1e" x="1305.4" y="50.3" width="24.4" height="24.65" shape-rendering="crispEdges"/><rect fill="#121212" x="1329.8" y="50.3" width="12.2" height="24.65" shape-rendering="crispEdges"/><rect fill="#191919" x="0" y="74.7" width="12.2" height="24.65" shape-rendering="crispEdges"/><rect fill="#1e1e1e" x="12.2" y="74.7" width="1317.6" height="24.65" shape-rendering="crispEdges"/><rect fill="#121212" x="1329.8" y="74.7" width="12.2" height="24.65" shape-rendering="crispEdges"/><rect fill="#7ee787" x="0" y="99.1" width="61" height="24.65" shape-rendering="crispEdges"/><rect fill="#121212" x="61" y="99.1" width="12.2" height="24.65" shape-rendering="crispEdges"/><rect fill="#121212" x="73.2" y="99.1" width="109.8" height="24.65" shape-rendering="crispEdges"/><rect fill="#121212" x="183" y="99.1" width="12.2" height="24.65" shape-rendering="crispEdges"/><rect fill="#121212" x="195.2" y="99.1" width="73.2" height="24.65" shape-rendering="crispEdges"/><rect fill="#121212" x="268.4" y="99.1" width="12.2" height="24.65" shape-rendering="crispEdges"/><rect fill="#121212" x="280.6" y="99.1" width="97.6" height="24.65" shape-rendering="crispEdges"/><rect fill="#121212" x="378.2" y="99.1" width="12.2" height="24.65" shape-rendering="crispEdges"/><rect fill="#121212" x="390.4" y="99.1" width="85.4" height="24.65" shape-rendering="crispEdges"/><rect fill="#121212" x="475.8" y="99.1" width="12.2" height="24.65" shape-rendering="crispEdges"/><rect fill="#121212" x="488" y="99.1" width="109.8" height="24.65" shape-rendering="crispEdges"/><rect fill="#121212" x="597.8" y="99.1" width="12.2" height="24.65" shape-rendering="crispEdges"/><rect fill="#121212" x="610" y="99.1" width="122" height="24.65" shape-rendering="crispEdges"/><rect fill="#121212" x="732" y="99.1" width="12.2" height="24.65" shape-rendering="crispEdges"/><rect fill="#121212" x="744.2" y="99.1" width="597.8" height="24.65" shape-rendering="crispEdges"/><rect fill="#121212" x="0" y="123.5" width="12.2" height="24.65" shape-rendering="crispEdges"/><rect fill="#121212" x="12.2" y="123.5" width="0" height="24.65" shape-rendering="crispEdges"/><rect fill="#121212" x="12.2" y="123.5" width="61" height="24.65" shape-rendering="crispEdges"/><rect fill="#121212" x="73.2" y="123.5" width="48.8" height="24.65" shape-rendering="crispEdges"/><rect fill="#121212" x="122" y="123.5" width="244" height="24.65" shape-rendering="crispEdges"/><rect fill="#121212" x="366" y="123.5" width="48.8" height="24.65" shape-rendering="crispEdges"/><rect fill="#121212" x="414.8" y="123.5" width="170.8" height="24.65" shape-rendering="crispEdges"/><rect fill="#121212" x="585.6" y="123.5" width="61" height="24.65" shape-rendering="crispEdges"/><rect fill="#121212" x="646.6" y="123.5" width="231.8" height="24.65" shape-rendering="crispEdges"/><rect fill="#121212" x="878.4" y="123.5" width="231.8" height="24.65" shape-rendering="crispEdges"/><rect fill="#121212" x="1110.2" y="123.5" width="61" height="24.65" shape-rendering="crispEdges"/><rect fill="#121212" x="1171.2" y="123.5" width="0" height="24.65" shape-rendering="crispEdges"/><rect fill="#121212" x="1171.2" y="123.5" width="48.8" height="24.65" shape-rendering="crispEdges"/><rect fill="#121212" x="1220" y="123.5" width="61" height="24.65" shape-rendering="crispEdges"/><rect fill="#121212" x="1281" y="123.5" width="48.8" height="24.65" shape-rendering="crispEdges"/><rect fill="#121212" x="1329.8" y="123.5" width="12.2" height="24.65" shape-rendering="crispEdges"/><rect fill="#0178d4" x="0" y="147.9" width="12.2" height="24.65" shape-rendering="crispEdges"/><rect fill="#0178d4" x="12.2" y="147.9" width="12.2" height="24.65" shape-rendering="crispEdges"/><rect fill="#d435ac" x="24.4" y="147.9" width="24.4" height="24.65" shape-rendering="crispEdges"/><rect fill="#0178d4" x="48.8" y="147.9" width="12.2" height="24.65" shape-rendering="crispEdges"/><rect fill="#0178d4" x="61" y="147.9" width="12.2" height="24.65" shape-rendering="crispEdges"/><rect fill="#0178d4" x="73.2" y="147.9" width="73.2" height="24.65" shape-rendering="crispEdges"/><rect fill="#0178d4" x="146.4" y="147.9" width="219.6" height="24.65" shape-rendering="crispEdges"/><rect fill="#0178d4" x="366" y="147.9" width="109.8" height="24.65" shape-rendering="crispEdges"/><rect fill="#0178d4" x="475.8" y="147.9" width="109.8" height="24.65" shape-rendering="crispEdges"/><rect fill="#0178d4" x="585.6" y="147.9" width="73.2" height="24.65" shape-rendering="crispEdges"/><rect fill="#0178d4" x="658.8" y="147.9" width="219.6" height="24.65" shape-rendering="crispEdges"/><rect fill="#0178d4" x="878.4" y="147.9" width="146.4" height="24.65" shape-rendering="crispEdges"/><rect fill="#0178d4" x="1024.8" y="147.9" width="146.4" height="24.65" shape-rendering="crispEdges"/><rect fill="#0178d4" x="1171.2" y="147.9" width="24.4" height="24.65" shape-rendering="crispEdges"/><rect fill="#0178d4" x="1195.6" y="147.9" width="24.4" height="24.65" shape-rendering="crispEdges"/><rect fill="#0178d4" x="1220" y="147.9" width="85.4" height="24.65" shape-rendering="crispEdges"/><rect fill="#0178d4" x="1305.4" y="147.9" width="24.4" height="24.65" shape-rendering="crispEdges"/><rect fill="#0178d4" x="1329.8" y="147.9" width="12.2" height="24.65" shape-rendering="crispEdges"/><rect fill="#272727" x="0" y="172.3" width="12.2" height="24.65" shape-rendering="crispEdges"/><rect fill="#272727" x="12.2" y="172.3" width="12.2" height="24.65" shape-rendering="crispEdges"/><rect fill="#663399" x="24.4" y="172.3" width="24.4" height="24.65" shape-rendering="crispEdges"/><rect fill="#272727" x="48.8" y="172.3" width="12.2" height="24.65" shape-rendering="crispEdges"/><rect fill="#272727" x="61" y="172.3" width="12.2" height="24.65" shape-rendering="crispEdges"/><rect fill="#272727" x="73.2" y="172.3" width="61" height="24.65" shape-rendering="crispEdges"/><rect fill="#272727" x="134.2" y="172.3" width="231.8" height="24.65" shape-rendering="crispEdges"/><rect fill="#272727" x="366" y="172.3" width="109.8" height="24.65" shape-rendering="crispEdges"/><rect fill="#272727" x="475.8" y="172.3" width="109.8" height="24.65" shape-rendering="crispEdges"/><rect fill="#272727" x="585.6" y="172.3" width="134.2" height="24.65" shape-rendering="crispEdges"/><rect fill="#272727" x="719.8" y="172.3" width="158.6" height="24.65" shape-rendering="crispEdges"/><rect fill="#272727" x="878.4" y="172.3" width="292.8" height="24.65" shape-rendering="crispEdges"/><rect fill="#272727" x="1171.2" y="172.3" width="24.4" height="24.65" shape-rendering="crispEdges"/><rect fill="#272727" x="1195.6" y="172.3" width="24.4" height="24.65" shape-rendering="crispEdges"/><rect fill="#272727" x="1220" y="172.3" width="48.8" height="24.65" shape-rendering="crispEdges"/><rect fill="#272727" x="1268.8" y="172.3" width="61" height="24.65" shape-rendering="crispEdges"/><rect fill="#272727" x="1329.8" y="172.3" width="12.2" height="24.65" shape-rendering="crispEdges"/><rect fill="#272727" x="0" y="196.7" width="12.2" height="24.65" shape-rendering="crispEdges"/><rect fill="#272727" x="12.2" y="196.7" width="12.2" height="24.65" shape-rendering="crispEdges"/><rect fill="#35d4d4" x="24.4" y="196.7" width="24.4" height="24.65" shape-rendering="crispEdges"/><rect fill="#272727" x="48.8" y="196.7" width="12.2" height="24.65" shape-rendering="crispEdges"/><rect fill="#272727" x="61" y="196.7" width="12.2" height="24.65" shape-rendering="crispEdges"/><rect fill="#272727" x="73.2" y="196.7" width="97.6" height="24.65" shape-rendering="crispEdges"/><rect fill="#272727" x="170.8" y="196.7" width="195.2" height="24.65" shape-rendering="crispEdges"/><rect fill="#272727" x="366" y="196.7" width="158.6" height="24.65" shape-rendering="crispEdges"/><rect fill="#272727" x="524.6" y="196.7" width="61" height="24.65" shape-rendering="crispEdges"/><rect fill="#272727" x="585.6" y="196.7" width="85.4" height="24.65" shape-rendering="crispEdges"/><rect fill="#272727" x="671" y="196.7" width="207.4" height="24.65" shape-rendering="crispEdges"/><rect fill="#272727" x="878.4" y="196.7" width="207.4" height="24.65" shape-rendering="crispEdges"/><rect fill="#272727" x="1085.8" y="196.7" width="85.4" height="24.65" shape-rendering="crispEdges"/><rect fill="#272727" x="1171.2" y="196.7" width="24.4" height="24.65" shape-rendering="crispEdges"/><rect fill="#272727" x="1195.6" y="196.7" width="24.4" height="24.65" shape-rendering="crispEdges"/><rect fill="#272727" x="1220" y="196.7" width="48.8" height="24.65" shape-rendering="crispEdges"/><rect fill="#272727" x="1268.8" y="196.7" width="61" height="24.65" shape-rendering="crispEdges"/><rect fill="#272727" x="1329.8" y="196.7" width="12.2" height="24.65" shape-rendering="crispEdges"/><rect fill="#272727" x="0" y="221.1" width="12.2" height="24.65" shape-rendering="crispEdges"/><rect fill="#272727" x="12.2" y="221.1" width="353.8" height="24.65" shape-rendering="crispEdges"/><rect fill="#272727" x="366" y="221.1" width="97.6" height="24.65" shape-rendering="crispEdges"/><rect fill="#272727" x="463.6" y="221.1" width="122" height="24.65" shape-rendering="crispEdges"/><rect fill="#272727" x="585.6" y="221.1" width="292.8" height="24.65" shape-rendering="crispEdges"/><rect fill="#272727" x="878.4" y="221.1" width="183" height="24.65" shape-rendering="crispEdges"/><rect fill="#272727" x="1061.4" y="221.1" width="109.8" height="24.65" shape-rendering="crispEdges"/><rect fill="#272727" x="1171.2" y="221.1" width="158.6" height="24.65" shape-rendering="crispEdges"/><rect fill="#272727" x="1329.8" y="221.1" width="12.2" height="24.65" shape-rendering="crispEdges"/><rect fill="#272727" x="0" y="245.5" width="12.2" height="24.65" shape-rendering="crispEdges"/><rect fill="#272727" x="12.2" y="245.5" width="12.2" height="24.65" shape-rendering="crispEdges"/><rect fill="#c0d435" x="24.4" y="245.5" width="24.4" height="24.65" shape-rendering="crispEdges"/><rect fill="#272727" x="48.8" y="245.5" width="12.2" height="24.65" shape-rendering="crispEdges"/><rect fill="#272727" x="61" y="245.5" width="12.2" height="24.65" shape-rendering="crispEdges"/><rect fill="#272727" x="73.2" y="245.5" width="61" height="24.65" shape-rendering="crispEdges"/><rect fill="#272727" x="134.2" y="245.5" width="231.8" height="24.65" shape-rendering="crispEdges"/><rect fill="#272727" x="366" y="245.5" width="134.2" height="24.65" shape-rendering="crispEdges"/><rect fill="#272727" x="500.2" y="245.5" width="85.4" height="24.65" shape-rendering="crispEdges"/><rect fill="#272727" x="585.6" y="245.5" width="12.2" height="24.65" shape-rendering="crispEdges"/><rect fill="#272727" x="597.8" y="245.5" width="280.6" height="24.65" shape-rendering="crispEdges"/><rect fill="#272727" x="878.4" y="245.5" width="12.2" height="24.65" shape-rendering="crispEdges"/><rect fill="#272727" x="890.6" y="245.5" width="280.6" height="24.65" shape-rendering="crispEdges"/><rect fill="#272727" x="1171.2" y="245.5" width="24.4" height="24.65" shape-rendering="crispEdges"/><rect fill="#272727" x="1195.6" y="245.5" width="24.4" height="24.65" shape-rendering="crispEdges"/><rect fill="#272727" x="1220" y="245.5" width="48.8" height="24.65" shape-rendering="crispEdges"/><rect fill="#272727" x="1268.8" y="245.5" width="61" height="24.65" shape-rendering="crispEdges"/><rect fill="#272727" x="1329.8" y="245.5" width="12.2" height="24.65" shape-rendering="crispEdges"/><rect fill="#272727" x="0" y="269.9" width="12.2" height="24.65" shape-rendering="crispEdges"/><rect fill="#272727" x="12.2" y="269.9" width="12.2" height="24.65" shape-rendering="crispEdges"/><rect fill="#669933" x="24.4" y="269.9" width="24.4" height="24.65" shape-rendering="crispEdges"/><rect fill="#272727" x="48.8" y="269.9" width="12.2" height="24.65" shape-rendering="crispEdges"/><rect fill="#272727" x="61" y="269.9" width="12.2" height="24.65" shape-rendering="crispEdges"/><rect fill="#272727" x="73.2" y="269.9" width="97.6" height="24.65" shape-rendering="crispEdges"/><rect fill="#272727" x="170.8" y="269.9" width="195.2" height="24.65" shape-rendering="crispEdges"/><rect fill="#272727" x="366" y="269.9" width="134.2" height="24.65" shape-rendering="crispEdges"/><rect fill="#272727" x="500.2" y="269.9" width="85.4" height="24.65" shape-rendering="crispEdges"/><rect fill="#272727" x="585.6" y="269.9" width="12.2" height="24.65" shape-rendering="crispEdges"/><rect fill="#272727" x="597.8" y="269.9" width="280.6" height="24.65" shape-rendering="crispEdges"/><rect fill="#272727" x="878.4" y="269.9" width="12.2" height="24.65" shape-rendering="crispEdges"/><rect fill="#272727" x="890.6" y="269.9" width="280.6" height="24.65" shape-rendering="crispEdges"/><rect fill="#272727" x="1171.2" y="269.9" width="24.4" height="24.65" shape-rendering="crispEdges"/><rect fill="#272727" x="1195.6" y="269.9" width="24.4" height="24.65" shape-rendering="crispEdges"/><rect fill="#272727" x="1220" y="269.9" width="48.8" height="24.65" shape-rendering="crispEdges"/><rect fill="#272727" x="1268.8" y="269.9" width="61" height="24.65" shape-rendering="crispEdges"/><rect fill="#272727" x="1329.8" y="269.9" width="12.2" height="24.65" shape-rendering="crispEdges"/><rect fill="#272727" x="0" y="294.3" width="12.2" height="24.65" shape-rendering="crispEdges"/><rect fill="#272727" x="12.2" y="294.3" width="12.2" height="24.65" shape-rendering="crispEdges"/><rect fill="#995933" x="24.4" y="294.3" width="24.4" height="24.65" shape-rendering="crispEdges"/><rect fill="#272727" x="48.8" y="294.3" width="12.2" height="24.65" shape-rendering="crispEdges"/><rect fill="#272727" x="61" y="294.3" width="12.2" height="24.65" shape-rendering="crispEdges"/><rect fill="#272727" x="73.2" y="294.3" width="85.4" height="24.65" shape-rendering="crispEdges"/><rect fill="#272727" x="158.6" y="294.3" width="207.4" height="24.65" shape-rendering="crispEdges"/><rect fill="#272727" x="366" y="294.3" width="134.2" height="24.65" shape-rendering="crispEdges"/><rect fill="#272727" x="500.2" y="294.3" width="85.4" height="24.65" shape-rendering="crispEdges"/><rect fill="#272727" x="585.6" y="294.3" width="12.2" height="24.65" shape-rendering="crispEdges"/><rect fill="#272727" x="597.8" y="294.3" width="280.6" height="24.65" shape-rendering="crispEdges"/><rect fill="#272727" x="878.4" y="294.3" width="12.2" height="24.65" shape-rendering="crispEdges"/><rect fill="#272727" x="890.6" y="294.3" width="280.6" height="24.65" shape-rendering="crispEdges"/><rect fill="#272727" x="1171.2" y="294.3" width="24.4" height="24.65" shape-rendering="crispEdges"/><rect fill="#272727" x="1195.6" y="294.3" width="24.4" height="24.65" shape-rendering="crispEdges"/><rect fill="#272727" x="1220" y="294.3" width="48.8" height="24.65" shape-rendering="crispEdges"/><rect fill="#272727" x="1268.8" y="294.3" width="61" height="24.65" shape-rendering="crispEdges"/><rect fill="#272727" x="1329.8" y="294.3" width="12.2" height="24.65" shape-rendering="crispEdges"/><rect fill="#272727" x="0" y="318.7" width="1342" height="24.65" shape-rendering="crispEdges"/><rect fill="#272727" x="0" y="343.1" width="1342" height="24.65" shape-rendering="crispEdges"/><rect fill="#272727" x="0" y="367.5" width="1342" height="24.65" shape-rendering="crispEdges"/><rect fill="#121212" x="0" y="391.9" width="12.2" height="24.65" shape-rendering="crispEdges"/><rect fill="#121212" x="12.2" y="391.9" width="0" height="24.65" shape-rendering="crispEdges"/><rect fill="#121212" x="12.2" y="391.9" width="1317.6" height="24.65" shape-rendering="crispEdges"/><rect fill="#121212" x="1329.8" y="391.9" width="12.2" height="24.65" shape-rendering="crispEdges"/><rect fill="#242f38" x="0" y="416.3" width="36.6" height="24.65" shape-rendering="crispEdges"/><rect fill="#242f38" x="36.6" y="416.3" width="85.4" height="24.65" shape-rendering="crispEdges"/><rect fill="#242f38" x="122" y="416.3" width="36.6" height="24.65" shape-rendering="crispEdges"/><rect fill="#242f38" x="158.6" y="416.3" width="97.6" height="24.65" shape-rendering="crispEdges"/><rect fill="#242f38" x="256.2" y="416.3" width="36.6" height="24.65" shape-rendering="crispEdges"/><rect fill="#242f38" x="292.8" y="416.3" width="109.8" height="24.65" shape-rendering="crispEdges"/><rect fill="#242f38" x="402.6" y="416.3" width="36.6" height="24.65" shape-rendering="crispEdges"/><rect fill="#242f38" x="439.2" y="416.3" width="146.4" height="24.65" shape-rendering="crispEdges"/><rect fill="#242f38" x="585.6" y="416.3" width="61" height="24.65" shape-rendering="crispEdges"/><rect fill="#242f38" x="646.6" y="416.3" width="85.4" height="24.65" shape-rendering="crispEdges"/><rect fill="#242f38" x="732" y="416.3" width="36.6" height="24.65" shape-rendering="crispEdges"/><rect fill="#242f38" x="768.6" y="416.3" width="73.2" height="24.65" shape-rendering="crispEdges"/><rect fill="#242f38" x="841.8" y="416.3" width="36.6" height="24.65" shape-rendering="crispEdges"/><rect fill="#242f38" x="878.4" y="416.3" width="61" height="24.65" shape-rendering="crispEdges"/><rect fill="#242f38" x="939.4" y="416.3" width="36.6" height="24.65" shape-rendering="crispEdges"/><rect fill="#242f38" x="976" y="416.3" width="73.2" height="24.65" shape-rendering="crispEdges"/><rect fill="#242f38" x="1049.2" y="416.3" width="36.6" height="24.65" shape-rendering="crispEdges"/><rect fill="#242f38" x="1085.8" y="416.3" width="109.8" height="24.65" shape-rendering="crispEdges"/><rect fill="#242f38" x="1195.6" y="416.3" width="12.2" height="24.65" shape-rendering="crispEdges"/><rect fill="#242f38" x="1207.8" y="416.3" width="24.4" height="24.65" shape-rendering="crispEdges"/><rect fill="#242f38" x="1232.2" y="416.3" width="97.6" height="24.65" shape-rendering="crispEdges"/><rect fill="#242f38" x="1329.8" y="416.3" width="12.2" height="24.65" shape-rendering="crispEdges"/>
    <g class="terminal-292415677-matrix">
    <text class="terminal-292415677-r2" x="12.2" y="20" textLength="12.2" clip-path="url(#terminal-292415677-line-0)">⭘</text><text class="terminal-292415677-r2" x="634.4" y="20" textLength="48.8" clip-path="url(#terminal-292415677-line-0)">Band</text><text class="terminal-292415677-r1" x="1342" y="20" textLength="12.2" clip-path="url(#terminal-292415677-line-0)">
</text><text class="terminal-292415677-r3" x="0" y="44.4" textLength="12.2" clip-path="url(#terminal-292415677-line-1)">▊</text><text class="terminal-292415677-r4" x="12.2" y="44.4" textLength="1317.6" clip-path="url(#terminal-292415677-line-1)">▔▔▔▔▔▔▔▔▔▔▔▔▔▔▔▔▔▔▔▔▔▔▔▔▔▔▔▔▔▔▔▔▔▔▔▔▔▔▔▔▔▔▔▔▔▔▔▔▔▔▔▔▔▔▔▔▔▔▔▔▔▔▔▔▔▔▔▔▔▔▔▔▔▔▔▔▔▔▔▔▔▔▔▔▔▔▔▔▔▔▔▔▔▔▔▔▔▔▔▔▔▔▔▔▔▔▔▔</text><text class="terminal-292415677-r4" x="1329.8" y="44.4" textLength="12.2" clip-path="url(#terminal-292415677-line-1)">▎</text><text class="terminal-292415677-r1" x="1342" y="44.4" textLength="12.2" clip-path="url(#terminal-292415677-line-1)">
</text><text class="terminal-292415677-r3" x="0" y="68.8" textLength="12.2" clip-path="url(#terminal-292415677-line-2)">▊</text><text class="terminal-292415677-r5" x="36.6" y="68.8" textLength="256.2" clip-path="url(#terminal-292415677-line-2)">Search&#160;agents&#160;by&#160;name</text><text class="terminal-292415677-r4" x="1329.8" y="68.8" textLength="12.2" clip-path="url(#terminal-292415677-line-2)">▎</text><text class="terminal-292415677-r1" x="1342" y="68.8" textLength="12.2" clip-path="url(#terminal-292415677-line-2)">
</text><text class="terminal-292415677-r3" x="0" y="93.2" textLength="12.2" clip-path="url(#terminal-292415677-line-3)">▊</text><text class="terminal-292415677-r4" x="12.2" y="93.2" textLength="1317.6" clip-path="url(#terminal-292415677-line-3)">▁▁▁▁▁▁▁▁▁▁▁▁▁▁▁▁▁▁▁▁▁▁▁▁▁▁▁▁▁▁▁▁▁▁▁▁▁▁▁▁▁▁▁▁▁▁▁▁▁▁▁▁▁▁▁▁▁▁▁▁▁▁▁▁▁▁▁▁▁▁▁▁▁▁▁▁▁▁▁▁▁▁▁▁▁▁▁▁▁▁▁▁▁▁▁▁▁▁▁▁▁▁▁▁▁▁▁▁</text><text class="terminal-292415677-r4" x="1329.8" y="93.2" textLength="12.2" clip-path="url(#terminal-292415677-line-3)">▎</text><text class="terminal-292415677-r1" x="1342" y="93.2" textLength="12.2" clip-path="url(#terminal-292415677-line-3)">
</text><text class="terminal-292415677-r6" x="0" y="117.6" textLength="61" clip-path="url(#terminal-292415677-line-4)">&#160;All&#160;</text><text class="terminal-292415677-r7" x="73.2" y="117.6" textLength="109.8" clip-path="url(#terminal-292415677-line-4)">&#160;Running&#160;</text><text class="terminal-292415677-r7" x="195.2" y="117.6" textLength="73.2" clip-path="url(#terminal-292415677-line-4)">&#160;Idle&#160;</text><text class="terminal-292415677-r7" x="280.6" y="117.6" textLength="97.6" clip-path="url(#terminal-292415677-line-4)">&#160;Claude&#160;</text><text class="terminal-292415677-r7" x="390.4" y="117.6" textLength="85.4" clip-path="url(#terminal-292415677-line-4)">&#160;Codex&#160;</text><text class="terminal-292415677-r7" x="488" y="117.6" textLength="109.8" clip-path="url(#terminal-292415677-line-4)">&#160;Copilot&#160;</text><text class="terminal-292415677-r7" x="610" y="117.6" textLength="122" clip-path="url(#terminal-292415677-line-4)">&#160;OpenCode&#160;</text><text class="terminal-292415677-r1" x="1342" y="117.6" textLength="12.2" clip-path="url(#terminal-292415677-line-4)">
</text><text class="terminal-292415677-r8" x="73.2" y="142" textLength="48.8" clip-path="url(#terminal-292415677-line-5)">Name</text><text class="terminal-292415677-r8" x="366" y="142" textLength="48.8" clip-path="url(#terminal-292415677-line-5)">Role</text><text class="terminal-292415677-r8" x="585.6" y="142" textLength="61" clip-path="url(#terminal-292415677-line-5)">Model</text><text class="terminal-292415677-r8" x="878.4" y="142" textLength="231.8" clip-path="url(#terminal-292415677-line-5)">Other&#160;configuration</text><text class="terminal-292415677-r8" x="1220" y="142" textLength="61" clip-path="url(#terminal-292415677-line-5)">State</text><text class="terminal-292415677-r1" x="1342" y="142" textLength="12.2" clip-path="url(#terminal-292415677-line-5)">
</text><text class="terminal-292415677-r9" x="12.2" y="166.4" textLength="12.2" clip-path="url(#terminal-292415677-line-6)">[</text><text class="terminal-292415677-r10" x="24.4" y="166.4" textLength="24.4" clip-path="url(#terminal-292415677-line-6)">CL</text><text class="terminal-292415677-r9" x="48.8" y="166.4" textLength="12.2" clip-path="url(#terminal-292415677-line-6)">]</text><text class="terminal-292415677-r11" x="73.2" y="166.4" textLength="73.2" clip-path="url(#terminal-292415677-line-6)">Claude</text><text class="terminal-292415677-r11" x="366" y="166.4" textLength="109.8" clip-path="url(#terminal-292415677-line-6)">Architect</text><text class="terminal-292415677-r11" x="585.6" y="166.4" textLength="73.2" clip-path="url(#terminal-292415677-line-6)">Sonnet</text><text class="terminal-292415677-r11" x="878.4" y="166.4" textLength="146.4" clip-path="url(#terminal-292415677-line-6)">Effort:&#160;high</text><text class="terminal-292415677-r11" x="1171.2" y="166.4" textLength="24.4" clip-path="url(#terminal-292415677-line-6)">CL</text><text class="terminal-292415677-r11" x="1220" y="166.4" textLength="85.4" clip-path="url(#terminal-292415677-line-6)">running</text><text class="terminal-292415677-r1" x="1342" y="166.4" textLength="12.2" clip-path="url(#terminal-292415677-line-6)">
</text><text class="terminal-292415677-r12" x="12.2" y="190.8" textLength="12.2" clip-path="url(#terminal-292415677-line-7)">[</text><text class="terminal-292415677-r10" x="24.4" y="190.8" textLength="24.4" clip-path="url(#terminal-292415677-line-7)">CO</text><text class="terminal-292415677-r12" x="48.8" y="190.8" textLength="12.2" clip-path="url(#terminal-292415677-line-7)">]</text><text class="terminal-292415677-r2" x="73.2" y="190.8" textLength="61" clip-path="url(#terminal-292415677-line-7)">Codex</text><text class="terminal-292415677-r2" x="366" y="190.8" textLength="109.8" clip-path="url(#terminal-292415677-line-7)">Developer</text><text class="terminal-292415677-r2" x="585.6" y="190.8" textLength="134.2" clip-path="url(#terminal-292415677-line-7)">gpt-5.6-sol</text><text class="terminal-292415677-r2" x="878.4" y="190.8" textLength="292.8" clip-path="url(#terminal-292415677-line-7)">Reasoning&#160;effort:&#160;medium</text><text class="terminal-292415677-r2" x="1171.2" y="190.8" textLength="24.4" clip-path="url(#terminal-292415677-line-7)">CX</text><text class="terminal-292415677-r2" x="1220" y="190.8" textLength="48.8" clip-path="url(#terminal-292415677-line-7)">idle</text><text class="terminal-292415677-r1" x="1342" y="190.8" textLength="12.2" clip-path="url(#terminal-292415677-line-7)">
</text><text class="terminal-292415677-r13" x="12.2" y="215.2" textLength="12.2" clip-path="url(#terminal-292415677-line-8)">[</text><text class="terminal-292415677-r6" x="24.4" y="215.2" textLength="24.4" clip-path="url(#terminal-292415677-line-8)">DE</text><text class="terminal-292415677-r13" x="48.8" y="215.2" textLength="12.2" clip-path="url(#terminal-292415677-line-8)">]</text><text class="terminal-292415677-r2" x="73.2" y="215.2" textLength="97.6" clip-path="url(#terminal-292415677-line-8)">Designer</text><text class="terminal-292415677-r2" x="366" y="215.2" textLength="158.6" clip-path="url(#terminal-292415677-line-8)">UX/UI&#160;Product</text><text class="terminal-292415677-r2" x="585.6" y="215.2" textLength="85.4" clip-path="url(#terminal-292415677-line-8)">gpt-5.4</text><text class="terminal-292415677-r2" x="878.4" y="215.2" textLength="207.4" clip-path="url(#terminal-292415677-line-8)">Variant&#160;/&#160;effort:</text><text class="terminal-292415677-r2" x="1171.2" y="215.2" textLength="24.4" clip-path="url(#terminal-292415677-line-8)">OM</text><text class="terminal-292415677-r2" x="1220" y="215.2" textLength="48.8" clip-path="url(#terminal-292415677-line-8)">idle</text><text class="terminal-292415677-r1" x="1342" y="215.2" textLength="12.2" clip-path="url(#terminal-292415677-line-8)">
</text><text class="terminal-292415677-r2" x="366" y="239.6" textLength="97.6" clip-path="url(#terminal-292415677-line-9)">Designer</text><text class="terminal-292415677-r2" x="878.4" y="239.6" textLength="183" clip-path="url(#terminal-292415677-line-9)">Adapter&#160;default</text><text class="terminal-292415677-r1" x="1342" y="239.6" textLength="12.2" clip-path="url(#terminal-292415677-line-9)">
</text><text class="terminal-292415677-r14" x="12.2" y="264" textLength="12.2" clip-path="url(#terminal-292415677-line-10)">[</text><text class="terminal-292415677-r6" x="24.4" y="264" textLength="24.4" clip-path="url(#terminal-292415677-line-10)">SC</text><text class="terminal-292415677-r14" x="48.8" y="264" textLength="12.2" clip-path="url(#terminal-292415677-line-10)">]</text><text class="terminal-292415677-r2" x="73.2" y="264" textLength="61" clip-path="url(#terminal-292415677-line-10)">Scout</text><text class="terminal-292415677-r2" x="366" y="264" textLength="134.2" clip-path="url(#terminal-292415677-line-10)">Not&#160;managed</text><text class="terminal-292415677-r2" x="585.6" y="264" textLength="12.2" clip-path="url(#terminal-292415677-line-10)">—</text><text class="terminal-292415677-r2" x="878.4" y="264" textLength="12.2" clip-path="url(#terminal-292415677-line-10)">—</text><text class="terminal-292415677-r2" x="1171.2" y="264" textLength="24.4" clip-path="url(#terminal-292415677-line-10)">CL</text><text class="terminal-292415677-r2" x="1220" y="264" textLength="48.8" clip-path="url(#terminal-292415677-line-10)">idle</text><text class="terminal-292415677-r1" x="1342" y="264" textLength="12.2" clip-path="url(#terminal-292415677-line-10)">
</text><text class="terminal-292415677-r15" x="12.2" y="288.4" textLength="12.2" clip-path="url(#terminal-292415677-line-11)">[</text><text class="terminal-292415677-r10" x="24.4" y="288.4" textLength="24.4" clip-path="url(#terminal-292415677-line-11)">RE</text><text class="terminal-292415677-r15" x="48.8" y="288.4" textLength="12.2" clip-path="url(#terminal-292415677-line-11)">]</text><text class="terminal-292415677-r2" x="73.2" y="288.4" textLength="97.6" clip-path="url(#terminal-292415677-line-11)">Reviewer</text><text class="terminal-292415677-r2" x="366" y="288.4" textLength="134.2" clip-path="url(#terminal-292415677-line-11)">Not&#160;managed</text><text class="terminal-292415677-r2" x="585.6" y="288.4" textLength="12.2" clip-path="url(#terminal-292415677-line-11)">—</text><text class="terminal-292415677-r2" x="878.4" y="288.4" textLength="12.2" clip-path="url(#terminal-292415677-line-11)">—</text><text class="terminal-292415677-r2" x="1171.2" y="288.4" textLength="24.4" clip-path="url(#terminal-292415677-line-11)">CX</text><text class="terminal-292415677-r2" x="1220" y="288.4" textLength="48.8" clip-path="url(#terminal-292415677-line-11)">idle</text><text class="terminal-292415677-r1" x="1342" y="288.4" textLength="12.2" clip-path="url(#terminal-292415677-line-11)">
</text><text class="terminal-292415677-r16" x="12.2" y="312.8" textLength="12.2" clip-path="url(#terminal-292415677-line-12)">[</text><text class="terminal-292415677-r10" x="24.4" y="312.8" textLength="24.4" clip-path="url(#terminal-292415677-line-12)">RE</text><text class="terminal-292415677-r16" x="48.8" y="312.8" textLength="12.2" clip-path="url(#terminal-292415677-line-12)">]</text><text class="terminal-292415677-r2" x="73.2" y="312.8" textLength="85.4" clip-path="url(#terminal-292415677-line-12)">Release</text><text class="terminal-292415677-r2" x="366" y="312.8" textLength="134.2" clip-path="url(#terminal-292415677-line-12)">Not&#160;managed</text><text class="terminal-292415677-r2" x="585.6" y="312.8" textLength="12.2" clip-path="url(#terminal-292415677-line-12)">—</text><text class="terminal-292415677-r2" x="878.4" y="312.8" textLength="12.2" clip-path="url(#terminal-292415677-line-12)">—</text><text class="terminal-292415677-r2" x="1171.2" y="312.8" textLength="24.4" clip-path="url(#terminal-292415677-line-12)">CP</text><text class="terminal-292415677-r2" x="1220" y="312.8" textLength="48.8" clip-path="url(#terminal-292415677-line-12)">idle</text><text class="terminal-292415677-r1" x="1342" y="312.8" textLength="12.2" clip-path="url(#terminal-292415677-line-12)">
</text><text class="terminal-292415677-r1" x="1342" y="337.2" textLength="12.2" clip-path="url(#terminal-292415677-line-13)">
</text><text class="terminal-292415677-r1" x="1342" y="361.6" textLength="12.2" clip-path="url(#terminal-292415677-line-14)">
</text><text class="terminal-292415677-r1" x="1342" y="386" textLength="12.2" clip-path="url(#terminal-292415677-line-15)">
</text><text class="terminal-292415677-r1" x="1342" y="410.4" textLength="12.2" clip-path="url(#terminal-292415677-line-16)">
</text><text class="terminal-292415677-r17" x="0" y="434.8" textLength="36.6" clip-path="url(#terminal-292415677-line-17)">&#160;/&#160;</text><text class="terminal-292415677-r2" x="36.6" y="434.8" textLength="85.4" clip-path="url(#terminal-292415677-line-17)">Search&#160;</text><text class="terminal-292415677-r17" x="122" y="434.8" textLength="36.6" clip-path="url(#terminal-292415677-line-17)">&#160;f&#160;</text><text class="terminal-292415677-r2" x="158.6" y="434.8" textLength="97.6" clip-path="url(#terminal-292415677-line-17)">Filters&#160;</text><text class="terminal-292415677-r17" x="256.2" y="434.8" textLength="36.6" clip-path="url(#terminal-292415677-line-17)">&#160;n&#160;</text><text class="terminal-292415677-r2" x="292.8" y="434.8" textLength="109.8" clip-path="url(#terminal-292415677-line-17)">Register&#160;</text><text class="terminal-292415677-r17" x="402.6" y="434.8" textLength="36.6" clip-path="url(#terminal-292415677-line-17)">&#160;c&#160;</text><text class="terminal-292415677-r2" x="439.2" y="434.8" textLength="146.4" clip-path="url(#terminal-292415677-line-17)">Reconfigure&#160;</text><text class="terminal-292415677-r17" x="585.6" y="434.8" textLength="61" clip-path="url(#terminal-292415677-line-17)">&#160;del&#160;</text><text class="terminal-292415677-r2" x="646.6" y="434.8" textLength="85.4" clip-path="url(#terminal-292415677-line-17)">Delete&#160;</text><text class="terminal-292415677-r17" x="732" y="434.8" textLength="36.6" clip-path="url(#terminal-292415677-line-17)">&#160;s&#160;</text><text class="terminal-292415677-r2" x="768.6" y="434.8" textLength="73.2" clip-path="url(#terminal-292415677-line-17)">Start&#160;</text><text class="terminal-292415677-r17" x="841.8" y="434.8" textLength="36.6" clip-path="url(#terminal-292415677-line-17)">&#160;x&#160;</text><text class="terminal-292415677-r2" x="878.4" y="434.8" textLength="61" clip-path="url(#terminal-292415677-line-17)">Stop&#160;</text><text class="terminal-292415677-r17" x="939.4" y="434.8" textLength="36.6" clip-path="url(#terminal-292415677-line-17)">&#160;o&#160;</text><text class="terminal-292415677-r2" x="976" y="434.8" textLength="73.2" clip-path="url(#terminal-292415677-line-17)">Roles&#160;</text><text class="terminal-292415677-r17" x="1049.2" y="434.8" textLength="36.6" clip-path="url(#terminal-292415677-line-17)">&#160;w&#160;</text><text class="terminal-292415677-r2" x="1085.8" y="434.8" textLength="109.8" clip-path="url(#terminal-292415677-line-17)">New&#160;role&#160;</text><text class="terminal-292415677-r18" x="1195.6" y="434.8" textLength="12.2" clip-path="url(#terminal-292415677-line-17)">▏</text><text class="terminal-292415677-r17" x="1207.8" y="434.8" textLength="24.4" clip-path="url(#terminal-292415677-line-17)">^p</text><text class="terminal-292415677-r2" x="1232.2" y="434.8" textLength="97.6" clip-path="url(#terminal-292415677-line-17)">&#160;palette</text>
    </g>
    </g>
</svg>
