<svg class="rich-terminal" viewBox="0 0 1092 489.2" xmlns="http://www.w3.org/2000/svg">
    <!-- Generated with Rich https://www.textualize.io -->
    <style>

    @font-face {
        font-family: "Fira Code";
        src: local("FiraCode-Regular"),
                url("https://cdnjs.cloudflare.com/ajax/libs/firacode/6.2.0/woff2/FiraCode-Regular.woff2") format("woff2"),
                url("https://cdnjs.cloudflare.com/ajax/libs/firacode/6.2.0/woff/FiraCode-Regular.woff") format("woff");
        font-style: normal;
        font-weight: 400;
    }
    @font-face {
        font-family: "Fira Code";
        src: local("FiraCode-Bold"),
                url("https://cdnjs.cloudflare.com/ajax/libs/firacode/6.2.0/woff2/FiraCode-Bold.woff2") format("woff2"),
                url("https://cdnjs.cloudflare.com/ajax/libs/firacode/6.2.0/woff/FiraCode-Bold.woff") format("woff");
        font-style: bold;
        font-weight: 700;
    }

    .terminal-570766995-matrix {
        font-family: Fira Code, monospace;
        font-size: 20px;
        line-height: 24.4px;
        font-variant-east-asian: full-width;
    }

    .terminal-570766995-title {
        font-size: 18px;
        font-weight: bold;
        font-family: arial;
    }

    .terminal-570766995-r1 { fill: #c5c8c6 }
.terminal-570766995-r2 { fill: #e0e0e0 }
.terminal-570766995-r3 { fill: #e0e0e0;font-weight: bold }
.terminal-570766995-r4 { fill: #a0a0a0 }
.terminal-570766995-r5 { fill: #fea62b }
.terminal-570766995-r6 { fill: #ddedf9;font-weight: bold }
.terminal-570766995-r7 { fill: #ffa62b;font-weight: bold }
.terminal-570766995-r8 { fill: #495259 }
    </style>

    <defs>
    <clipPath id="terminal-570766995-clip-terminal">
      <rect x="0" y="0" width="1072.6" height="438.2" />
    </clipPath>
    <clipPath id="terminal-570766995-line-0">
    <rect x="0" y="1.5" width="1073.6" height="24.65"/>
            </clipPath>
<clipPath id="terminal-570766995-line-1">
    <rect x="0" y="25.9" width="1073.6" height="24.65"/>
            </clipPath>
<clipPath id="terminal-570766995-line-2">
    <rect x="0" y="50.3" width="1073.6" height="24.65"/>
            </clipPath>
<clipPath id="terminal-570766995-line-3">
    <rect x="0" y="74.7" width="1073.6" height="24.65"/>
            </clipPath>
<clipPath id="terminal-570766995-line-4">
    <rect x="0" y="99.1" width="1073.6" height="24.65"/>
            </clipPath>
<clipPath id="terminal-570766995-line-5">
    <rect x="0" y="123.5" width="1073.6" height="24.65"/>
            </clipPath>
<clipPath id="terminal-570766995-line-6">
    <rect x="0" y="147.9" width="1073.6" height="24.65"/>
            </clipPath>
<clipPath id="terminal-570766995-line-7">
    <rect x="0" y="172.3" width="1073.6" height="24.65"/>
            </clipPath>
<clipPath id="terminal-570766995-line-8">
    <rect x="0" y="196.7" width="1073.6" height="24.65"/>
            </clipPath>
<clipPath id="terminal-570766995-line-9">
    <rect x="0" y="221.1" width="1073.6" height="24.65"/>
            </clipPath>
<clipPath id="terminal-570766995-line-10">
    <rect x="0" y="245.5" width="1073.6" height="24.65"/>
            </clipPath>
<clipPath id="terminal-570766995-line-11">
    <rect x="0" y="269.9" width="1073.6" height="24.65"/>
            </clipPath>
<clipPath id="terminal-570766995-line-12">
    <rect x="0" y="294.3" width="1073.6" height="24.65"/>
            </clipPath>
<clipPath id="terminal-570766995-line-13">
    <rect x="0" y="318.7" width="1073.6" height="24.65"/>
            </clipPath>
<clipPath id="terminal-570766995-line-14">
    <rect x="0" y="343.1" width="1073.6" height="24.65"/>
            </clipPath>
<clipPath id="terminal-570766995-line-15">
    <rect x="0" y="367.5" width="1073.6" height="24.65"/>
            </clipPath>
<clipPath id="terminal-570766995-line-16">
    <rect x="0" y="391.9" width="1073.6" height="24.65"/>
            </clipPath>
    </defs>

    <rect fill="#292929" stroke="rgba(255,255,255,0.35)" stroke-width="1" x="1" y="1" width="1090" height="487.2" rx="8"/><text class="terminal-570766995-title" fill="#c5c8c6" text-anchor="middle" x="545" y="27">Control</text>
            <g transform="translate(26,22)">
            <circle cx="0" cy="0" r="7" fill="#ff5f57"/>
            <circle cx="22" cy="0" r="7" fill="#febc2e"/>
            <circle cx="44" cy="0" r="7" fill="#28c840"/>
            </g>
        
    <g transform="translate(9, 41)" clip-path="url(#terminal-570766995-clip-terminal)">
    <rect fill="#242f38" x="0" y="1.5" width="12.2" height="24.65" shape-rendering="crispEdges"/><rect fill="#242f38" x="12.2" y="1.5" width="12.2" height="24.65" shape-rendering="crispEdges"/><rect fill="#242f38" x="24.4" y="1.5" width="61" height="24.65" shape-rendering="crispEdges"/><rect fill="#242f38" x="85.4" y="1.5" width="12.2" height="24.65" shape-rendering="crispEdges"/><rect fill="#242f38" x="97.6" y="1.5" width="378.2" height="24.65" shape-rendering="crispEdges"/><rect fill="#242f38" x="475.8" y="1.5" width="85.4" height="24.65" shape-rendering="crispEdges"/><rect fill="#242f38" x="561.2" y="1.5" width="390.4" height="24.65" shape-rendering="crispEdges"/><rect fill="#242f38" x="951.6" y="1.5" width="12.2" height="24.65" shape-rendering="crispEdges"/><rect fill="#242f38" x="963.8" y="1.5" width="0" height="24.65" shape-rendering="crispEdges"/><rect fill="#242f38" x="963.8" y="1.5" width="97.6" height="24.65" shape-rendering="crispEdges"/><rect fill="#242f38" x="1061.4" y="1.5" width="12.2" height="24.65" shape-rendering="crispEdges"/><rect fill="#121212" x="0" y="25.9" width="12.2" height="24.65" shape-rendering="crispEdges"/><rect fill="#121212" x="12.2" y="25.9" width="292.8" height="24.65" shape-rendering="crispEdges"/><rect fill="#121212" x="305" y="25.9" width="12.2" height="24.65" shape-rendering="crispEdges"/><rect fill="#121212" x="317.2" y="25.9" width="756.4" height="24.65" shape-rendering="crispEdges"/><rect fill="#121212" x="0" y="50.3" width="12.2" height="24.65" shape-rendering="crispEdges"/><rect fill="#121212" x="12.2" y="50.3" width="475.8" height="24.65" shape-rendering="crispEdges"/><rect fill="#121212" x="488" y="50.3" width="573.4" height="24.65" shape-rendering="crispEdges"/><rect fill="#121212" x="1061.4" y="50.3" width="12.2" height="24.65" shape-rendering="crispEdges"/><rect fill="#121212" x="0" y="74.7" width="12.2" height="24.65" shape-rendering="crispEdges"/><rect fill="#121212" x="12.2" y="74.7" width="1049.2" height="24.65" shape-rendering="crispEdges"/><rect fill="#121212" x="1061.4" y="74.7" width="12.2" height="24.65" shape-rendering="crispEdges"/><rect fill="#272727" x="0" y="99.1" width="12.2" height="24.65" shape-rendering="crispEdges"/><rect fill="#272727" x="12.2" y="99.1" width="1049.2" height="24.65" shape-rendering="crispEdges"/><rect fill="#272727" x="1061.4" y="99.1" width="12.2" height="24.65" shape-rendering="crispEdges"/><rect fill="#272727" x="0" y="123.5" width="12.2" height="24.65" shape-rendering="crispEdges"/><rect fill="#272727" x="12.2" y="123.5" width="12.2" height="24.65" shape-rendering="crispEdges"/><rect fill="#0178d4" x="24.4" y="123.5" width="146.4" height="24.65" shape-rendering="crispEdges"/><rect fill="#0178d4" x="170.8" y="123.5" width="878.4" height="24.65" shape-rendering="crispEdges"/><rect fill="#272727" x="1049.2" y="123.5" width="12.2" height="24.65" shape-rendering="crispEdges"/><rect fill="#272727" x="1061.4" y="123.5" width="12.2" height="24.65" shape-rendering="crispEdges"/><rect fill="#272727" x="0" y="147.9" width="12.2" height="24.65" shape-rendering="crispEdges"/><rect fill="#272727" x="12.2" y="147.9" width="12.2" height="24.65" shape-rendering="crispEdges"/><rect fill="#272727" x="24.4" y="147.9" width="134.2" height="24.65" shape-rendering="crispEdges"/><rect fill="#272727" x="158.6" y="147.9" width="890.6" height="24.65" shape-rendering="crispEdges"/><rect fill="#272727" x="1049.2" y="147.9" width="12.2" height="24.65" shape-rendering="crispEdges"/><rect fill="#272727" x="1061.4" y="147.9" width="12.2" height="24.65" shape-rendering="crispEdges"/><rect fill="#272727" x="0" y="172.3" width="12.2" height="24.65" shape-rendering="crispEdges"/><rect fill="#272727" x="12.2" y="172.3" width="12.2" height="24.65" shape-rendering="crispEdges"/><rect fill="#272727" x="24.4" y="172.3" width="158.6" height="24.65" shape-rendering="crispEdges"/><rect fill="#272727" x="183" y="172.3" width="866.2" height="24.65" shape-rendering="crispEdges"/><rect fill="#272727" x="1049.2" y="172.3" width="12.2" height="24.65" shape-rendering="crispEdges"/><rect fill="#272727" x="1061.4" y="172.3" width="12.2" height="24.65" shape-rendering="crispEdges"/><rect fill="#272727" x="0" y="196.7" width="12.2" height="24.65" shape-rendering="crispEdges"/><rect fill="#272727" x="12.2" y="196.7" width="12.2" height="24.65" shape-rendering="crispEdges"/><rect fill="#272727" x="24.4" y="196.7" width="170.8" height="24.65" shape-rendering="crispEdges"/><rect fill="#272727" x="195.2" y="196.7" width="854" height="24.65" shape-rendering="crispEdges"/><rect fill="#272727" x="1049.2" y="196.7" width="12.2" height="24.65" shape-rendering="crispEdges"/><rect fill="#272727" x="1061.4" y="196.7" width="12.2" height="24.65" shape-rendering="crispEdges"/><rect fill="#272727" x="0" y="221.1" width="12.2" height="24.65" shape-rendering="crispEdges"/><rect fill="#272727" x="12.2" y="221.1" width="12.2" height="24.65" shape-rendering="crispEdges"/><rect fill="#272727" x="24.4" y="221.1" width="1024.8" height="24.65" shape-rendering="crispEdges"/><rect fill="#272727" x="1049.2" y="221.1" width="12.2" height="24.65" shape-rendering="crispEdges"/><rect fill="#272727" x="1061.4" y="221.1" width="12.2" height="24.65" shape-rendering="crispEdges"/><rect fill="#272727" x="0" y="245.5" width="12.2" height="24.65" shape-rendering="crispEdges"/><rect fill="#272727" x="12.2" y="245.5" width="12.2" height="24.65" shape-rendering="crispEdges"/><rect fill="#272727" x="24.4" y="245.5" width="1024.8" height="24.65" shape-rendering="crispEdges"/><rect fill="#272727" x="1049.2" y="245.5" width="12.2" height="24.65" shape-rendering="crispEdges"/><rect fill="#272727" x="1061.4" y="245.5" width="12.2" height="24.65" shape-rendering="crispEdges"/><rect fill="#272727" x="0" y="269.9" width="12.2" height="24.65" shape-rendering="crispEdges"/><rect fill="#272727" x="12.2" y="269.9" width="12.2" height="24.65" shape-rendering="crispEdges"/><rect fill="#272727" x="24.4" y="269.9" width="1024.8" height="24.65" shape-rendering="crispEdges"/><rect fill="#272727" x="1049.2" y="269.9" width="12.2" height="24.65" shape-rendering="crispEdges"/><rect fill="#272727" x="1061.4" y="269.9" width="12.2" height="24.65" shape-rendering="crispEdges"/><rect fill="#272727" x="0" y="294.3" width="12.2" height="24.65" shape-rendering="crispEdges"/><rect fill="#272727" x="12.2" y="294.3" width="12.2" height="24.65" shape-rendering="crispEdges"/><rect fill="#272727" x="24.4" y="294.3" width="1024.8" height="24.65" shape-rendering="crispEdges"/><rect fill="#272727" x="1049.2" y="294.3" width="12.2" height="24.65" shape-rendering="crispEdges"/><rect fill="#272727" x="1061.4" y="294.3" width="12.2" height="24.65" shape-rendering="crispEdges"/><rect fill="#272727" x="0" y="318.7" width="12.2" height="24.65" shape-rendering="crispEdges"/><rect fill="#272727" x="12.2" y="318.7" width="12.2" height="24.65" shape-rendering="crispEdges"/><rect fill="#272727" x="24.4" y="318.7" width="1024.8" height="24.65" shape-rendering="crispEdges"/><rect fill="#272727" x="1049.2" y="318.7" width="12.2" height="24.65" shape-rendering="crispEdges"/><rect fill="#272727" x="1061.4" y="318.7" width="12.2" height="24.65" shape-rendering="crispEdges"/><rect fill="#272727" x="0" y="343.1" width="12.2" height="24.65" shape-rendering="crispEdges"/><rect fill="#272727" x="12.2" y="343.1" width="12.2" height="24.65" shape-rendering="crispEdges"/><rect fill="#272727" x="24.4" y="343.1" width="1024.8" height="24.65" shape-rendering="crispEdges"/><rect fill="#272727" x="1049.2" y="343.1" width="12.2" height="24.65" shape-rendering="crispEdges"/><rect fill="#272727" x="1061.4" y="343.1" width="12.2" height="24.65" shape-rendering="crispEdges"/><rect fill="#272727" x="0" y="367.5" width="12.2" height="24.65" shape-rendering="crispEdges"/><rect fill="#272727" x="12.2" y="367.5" width="1049.2" height="24.65" shape-rendering="crispEdges"/><rect fill="#272727" x="1061.4" y="367.5" width="12.2" height="24.65" shape-rendering="crispEdges"/><rect fill="#121212" x="0" y="391.9" width="12.2" height="24.65" shape-rendering="crispEdges"/><rect fill="#121212" x="12.2" y="391.9" width="0" height="24.65" shape-rendering="crispEdges"/><rect fill="#121212" x="12.2" y="391.9" width="1049.2" height="24.65" shape-rendering="crispEdges"/><rect fill="#121212" x="1061.4" y="391.9" width="12.2" height="24.65" shape-rendering="crispEdges"/><rect fill="#242f38" x="0" y="416.3" width="61" height="24.65" shape-rendering="crispEdges"/><rect fill="#242f38" x="61" y="416.3" width="61" height="24.65" shape-rendering="crispEdges"/><rect fill="#242f38" x="122" y="416.3" width="48.8" height="24.65" shape-rendering="crispEdges"/><rect fill="#242f38" x="170.8" y="416.3" width="122" height="24.65" shape-rendering="crispEdges"/><rect fill="#242f38" x="292.8" y="416.3" width="48.8" height="24.65" shape-rendering="crispEdges"/><rect fill="#242f38" x="341.6" y="416.3" width="85.4" height="24.65" shape-rendering="crispEdges"/><rect fill="#242f38" x="427" y="416.3" width="48.8" height="24.65" shape-rendering="crispEdges"/><rect fill="#242f38" x="475.8" y="416.3" width="73.2" height="24.65" shape-rendering="crispEdges"/><rect fill="#242f38" x="549" y="416.3" width="48.8" height="24.65" shape-rendering="crispEdges"/><rect fill="#242f38" x="597.8" y="416.3" width="109.8" height="24.65" shape-rendering="crispEdges"/><rect fill="#242f38" x="707.6" y="416.3" width="48.8" height="24.65" shape-rendering="crispEdges"/><rect fill="#242f38" x="756.4" y="416.3" width="109.8" height="24.65" shape-rendering="crispEdges"/><rect fill="#242f38" x="866.2" y="416.3" width="61" height="24.65" shape-rendering="crispEdges"/><rect fill="#242f38" x="927.2" y="416.3" width="12.2" height="24.65" shape-rendering="crispEdges"/><rect fill="#242f38" x="939.4" y="416.3" width="24.4" height="24.65" shape-rendering="crispEdges"/><rect fill="#242f38" x="963.8" y="416.3" width="97.6" height="24.65" shape-rendering="crispEdges"/><rect fill="#242f38" x="1061.4" y="416.3" width="12.2" height="24.65" shape-rendering="crispEdges"/>
    <g class="terminal-570766995-matrix">
    <text class="terminal-570766995-r2" x="12.2" y="20" textLength="12.2" clip-path="url(#terminal-570766995-line-0)">⭘</text><text class="terminal-570766995-r2" x="475.8" y="20" textLength="85.4" clip-path="url(#terminal-570766995-line-0)">Control</text><text class="terminal-570766995-r1" x="1073.6" y="20" textLength="12.2" clip-path="url(#terminal-570766995-line-0)">
</text><text class="terminal-570766995-r3" x="12.2" y="44.4" textLength="292.8" clip-path="url(#terminal-570766995-line-1)">Register&#160;agent&#160;—&#160;runtime</text><text class="terminal-570766995-r1" x="1073.6" y="44.4" textLength="12.2" clip-path="url(#terminal-570766995-line-1)">
</text><text class="terminal-570766995-r4" x="12.2" y="68.8" textLength="475.8" clip-path="url(#terminal-570766995-line-2)">Which&#160;agent&#160;runtime&#160;should&#160;run&#160;locally?</text><text class="terminal-570766995-r1" x="1073.6" y="68.8" textLength="12.2" clip-path="url(#terminal-570766995-line-2)">
</text><text class="terminal-570766995-r1" x="1073.6" y="93.2" textLength="12.2" clip-path="url(#terminal-570766995-line-3)">
</text><text class="terminal-570766995-r5" x="0" y="117.6" textLength="12.2" clip-path="url(#terminal-570766995-line-4)">╭</text><text class="terminal-570766995-r5" x="12.2" y="117.6" textLength="1049.2" clip-path="url(#terminal-570766995-line-4)">──────────────────────────────────────────────────────────────────────────────────────</text><text class="terminal-570766995-r5" x="1061.4" y="117.6" textLength="12.2" clip-path="url(#terminal-570766995-line-4)">╮</text><text class="terminal-570766995-r1" x="1073.6" y="117.6" textLength="12.2" clip-path="url(#terminal-570766995-line-4)">
</text><text class="terminal-570766995-r5" x="0" y="142" textLength="12.2" clip-path="url(#terminal-570766995-line-5)">│</text><text class="terminal-570766995-r6" x="24.4" y="142" textLength="146.4" clip-path="url(#terminal-570766995-line-5)">Claude&#160;&#160;(CL)</text><text class="terminal-570766995-r5" x="1061.4" y="142" textLength="12.2" clip-path="url(#terminal-570766995-line-5)">│</text><text class="terminal-570766995-r1" x="1073.6" y="142" textLength="12.2" clip-path="url(#terminal-570766995-line-5)">
</text><text class="terminal-570766995-r5" x="0" y="166.4" textLength="12.2" clip-path="url(#terminal-570766995-line-6)">│</text><text class="terminal-570766995-r2" x="24.4" y="166.4" textLength="134.2" clip-path="url(#terminal-570766995-line-6)">Codex&#160;&#160;(CX)</text><text class="terminal-570766995-r5" x="1061.4" y="166.4" textLength="12.2" clip-path="url(#terminal-570766995-line-6)">│</text><text class="terminal-570766995-r1" x="1073.6" y="166.4" textLength="12.2" clip-path="url(#terminal-570766995-line-6)">
</text><text class="terminal-570766995-r5" x="0" y="190.8" textLength="12.2" clip-path="url(#terminal-570766995-line-7)">│</text><text class="terminal-570766995-r2" x="24.4" y="190.8" textLength="158.6" clip-path="url(#terminal-570766995-line-7)">Copilot&#160;&#160;(CP)</text><text class="terminal-570766995-r5" x="1061.4" y="190.8" textLength="12.2" clip-path="url(#terminal-570766995-line-7)">│</text><text class="terminal-570766995-r1" x="1073.6" y="190.8" textLength="12.2" clip-path="url(#terminal-570766995-line-7)">
</text><text class="terminal-570766995-r5" x="0" y="215.2" textLength="12.2" clip-path="url(#terminal-570766995-line-8)">│</text><text class="terminal-570766995-r2" x="24.4" y="215.2" textLength="170.8" clip-path="url(#terminal-570766995-line-8)">OpenCode&#160;&#160;(OM)</text><text class="terminal-570766995-r5" x="1061.4" y="215.2" textLength="12.2" clip-path="url(#terminal-570766995-line-8)">│</text><text class="terminal-570766995-r1" x="1073.6" y="215.2" textLength="12.2" clip-path="url(#terminal-570766995-line-8)">
</text><text class="terminal-570766995-r5" x="0" y="239.6" textLength="12.2" clip-path="url(#terminal-570766995-line-9)">│</text><text class="terminal-570766995-r5" x="1061.4" y="239.6" textLength="12.2" clip-path="url(#terminal-570766995-line-9)">│</text><text class="terminal-570766995-r1" x="1073.6" y="239.6" textLength="12.2" clip-path="url(#terminal-570766995-line-9)">
</text><text class="terminal-570766995-r5" x="0" y="264" textLength="12.2" clip-path="url(#terminal-570766995-line-10)">│</text><text class="terminal-570766995-r5" x="1061.4" y="264" textLength="12.2" clip-path="url(#terminal-570766995-line-10)">│</text><text class="terminal-570766995-r1" x="1073.6" y="264" textLength="12.2" clip-path="url(#terminal-570766995-line-10)">
</text><text class="terminal-570766995-r5" x="0" y="288.4" textLength="12.2" clip-path="url(#terminal-570766995-line-11)">│</text><text class="terminal-570766995-r5" x="1061.4" y="288.4" textLength="12.2" clip-path="url(#terminal-570766995-line-11)">│</text><text class="terminal-570766995-r1" x="1073.6" y="288.4" textLength="12.2" clip-path="url(#terminal-570766995-line-11)">
</text><text class="terminal-570766995-r5" x="0" y="312.8" textLength="12.2" clip-path="url(#terminal-570766995-line-12)">│</text><text class="terminal-570766995-r5" x="1061.4" y="312.8" textLength="12.2" clip-path="url(#terminal-570766995-line-12)">│</text><text class="terminal-570766995-r1" x="1073.6" y="312.8" textLength="12.2" clip-path="url(#terminal-570766995-line-12)">
</text><text class="terminal-570766995-r5" x="0" y="337.2" textLength="12.2" clip-path="url(#terminal-570766995-line-13)">│</text><text class="terminal-570766995-r5" x="1061.4" y="337.2" textLength="12.2" clip-path="url(#terminal-570766995-line-13)">│</text><text class="terminal-570766995-r1" x="1073.6" y="337.2" textLength="12.2" clip-path="url(#terminal-570766995-line-13)">
</text><text class="terminal-570766995-r5" x="0" y="361.6" textLength="12.2" clip-path="url(#terminal-570766995-line-14)">│</text><text class="terminal-570766995-r5" x="1061.4" y="361.6" textLength="12.2" clip-path="url(#terminal-570766995-line-14)">│</text><text class="terminal-570766995-r1" x="1073.6" y="361.6" textLength="12.2" clip-path="url(#terminal-570766995-line-14)">
</text><text class="terminal-570766995-r5" x="0" y="386" textLength="12.2" clip-path="url(#terminal-570766995-line-15)">╰</text><text class="terminal-570766995-r5" x="12.2" y="386" textLength="1049.2" clip-path="url(#terminal-570766995-line-15)">──────────────────────────────────────────────────────────────────────────────────────</text><text class="terminal-570766995-r5" x="1061.4" y="386" textLength="12.2" clip-path="url(#terminal-570766995-line-15)">╯</text><text class="terminal-570766995-r1" x="1073.6" y="386" textLength="12.2" clip-path="url(#terminal-570766995-line-15)">
</text><text class="terminal-570766995-r1" x="1073.6" y="410.4" textLength="12.2" clip-path="url(#terminal-570766995-line-16)">
</text><text class="terminal-570766995-r7" x="0" y="434.8" textLength="61" clip-path="url(#terminal-570766995-line-17)">&#160;esc&#160;</text><text class="terminal-570766995-r2" x="61" y="434.8" textLength="61" clip-path="url(#terminal-570766995-line-17)">Back&#160;</text><text class="terminal-570766995-r7" x="122" y="434.8" textLength="48.8" clip-path="url(#terminal-570766995-line-17)">&#160;^q&#160;</text><text class="terminal-570766995-r2" x="170.8" y="434.8" textLength="122" clip-path="url(#terminal-570766995-line-17)">Quit&#160;host&#160;</text><text class="terminal-570766995-r7" x="292.8" y="434.8" textLength="48.8" clip-path="url(#terminal-570766995-line-17)">&#160;^a&#160;</text><text class="terminal-570766995-r2" x="341.6" y="434.8" textLength="85.4" clip-path="url(#terminal-570766995-line-17)">Agents&#160;</text><text class="terminal-570766995-r7" x="427" y="434.8" textLength="48.8" clip-path="url(#terminal-570766995-line-17)">&#160;^o&#160;</text><text class="terminal-570766995-r2" x="475.8" y="434.8" textLength="73.2" clip-path="url(#terminal-570766995-line-17)">Rooms&#160;</text><text class="terminal-570766995-r7" x="549" y="434.8" textLength="48.8" clip-path="url(#terminal-570766995-line-17)">&#160;^,&#160;</text><text class="terminal-570766995-r2" x="597.8" y="434.8" textLength="109.8" clip-path="url(#terminal-570766995-line-17)">Settings&#160;</text><text class="terminal-570766995-r7" x="707.6" y="434.8" textLength="48.8" clip-path="url(#terminal-570766995-line-17)">&#160;^l&#160;</text><text class="terminal-570766995-r2" x="756.4" y="434.8" textLength="109.8" clip-path="url(#terminal-570766995-line-17)">Sign&#160;out&#160;</text><text class="terminal-570766995-r8" x="927.2" y="434.8" textLength="12.2" clip-path="url(#terminal-570766995-line-17)">▏</text><text class="terminal-570766995-r7" x="939.4" y="434.8" textLength="24.4" clip-path="url(#terminal-570766995-line-17)">^p</text><text class="terminal-570766995-r2" x="963.8" y="434.8" textLength="97.6" clip-path="url(#terminal-570766995-line-17)">&#160;palette</text>
    </g>
    </g>
</svg>
